<svg xmlns="http://www.w3.org/2000/svg" width="64" height="64" viewBox="0 0 64 64"><defs><style>.a{fill:none;stroke:#db8b2d;stroke-miterlimit:10;stroke-width:1.38px;}</style></defs><ellipse class="a" cx="45.5" cy="26.89" rx="3.36" ry="1.14"/><ellipse class="a" cx="45.5" cy="26.89" rx="6.74" ry="3.35"/><ellipse class="a" cx="45.5" cy="26.89" rx="10.12" ry="5.56"/><ellipse class="a" cx="45.5" cy="26.89" rx="13.5" ry="7.77"/><path class="a" d="M59,27c0,4.29-6,7.77-13.5,7.77S33.18,31.7,29.06,29C19.7,23,9.88,25.75,5,27V37.15c4.88-1.26,14.7-4,24.06,2,4.12,2.66,9,5.71,16.44,5.71S59,41.41,59,37.11V26.89"/><line class="a" x1="9.15" y1="28.95" x2="9.15" y2="25.97"/><line class="a" x1="17.46" y1="28.26" x2="17.46" y2="25.28"/><line class="a" x1="25.77" y1="30.22" x2="25.77" y2="27.24"/><line class="a" x1="34.08" y1="34.7" x2="34.08" y2="31.71"/><line class="a" x1="42.38" y1="37.64" x2="42.38" y2="34.66"/><line class="a" x1="50.69" y1="37.23" x2="50.69" y2="34.24"/><line class="a" x1="13.31" y1="31.25" x2="13.31" y2="25.28"/><line class="a" x1="21.62" y1="31.71" x2="21.62" y2="25.75"/><line class="a" x1="29.92" y1="29.58" x2="29.92" y2="35.54"/><line class="a" x1="38.23" y1="39.61" x2="38.23" y2="33.64"/><line class="a" x1="46.54" y1="40.63" x2="46.54" y2="34.66"/><line class="a" x1="54.85" y1="38.72" x2="54.85" y2="32.75"/></svg>