<svg xmlns="http://www.w3.org/2000/svg" width="64" height="64" viewBox="0 0 64 64"><defs><style>.a,.b{fill:none;stroke:#db8b2d;stroke-miterlimit:10;}.a{stroke-width:1.5px;}</style></defs><path class="a" d="M9.74,32C9.89,38.52,12.8,42.62,19,43.86A5.52,5.52,0,0,0,20,44l.94-.05A10.73,10.73,0,0,0,30,36.78l0-.06a4.11,4.11,0,0,0-.1-3.12,13,13,0,0,0-4-4.73,4,4,0,0,0-1.62-.71,48,48,0,0,1-7.6-2.28,4.1,4.1,0,0,0-5.1,1.79L10.28,30A4.07,4.07,0,0,0,9.74,32Z"/><path class="a" d="M8.9,32.59S8.27,9.7,13.08,9.7c3.08,0,1.61,16,1.61,16"/><path class="a" d="M9.91,31.3,5,33.58,6.57,44.05a103.93,103.93,0,0,0,11.07-.53"/><path class="a" d="M19.57,44l7.63,5a1.84,1.84,0,0,1,.49,2.56l-1.41,2.08a1.83,1.83,0,0,1-2.55.49l-15-10.06"/><path class="a" d="M54.26,31.87C54.11,38.39,51.2,42.49,45,43.72a4.15,4.15,0,0,1-1,.09c-.32,0-.64,0-.94-.05A10.71,10.71,0,0,1,34,36.65l0-.07a4.09,4.09,0,0,1,.1-3.11,12.9,12.9,0,0,1,4-4.73A4.16,4.16,0,0,1,39.73,28a47,47,0,0,0,7.6-2.27,4.11,4.11,0,0,1,5.1,1.78l1.29,2.29A4.13,4.13,0,0,1,54.26,31.87Z"/><path class="a" d="M55.1,32.46s.63-22.9-4.18-22.9c-3.08,0-1.61,16-1.61,16"/><path class="a" d="M54.09,31.16,59,33.45,57.43,43.92a103.93,103.93,0,0,1-11.07-.53"/><path class="a" d="M44.43,43.81l-7.63,5a1.83,1.83,0,0,0-.49,2.55l1.41,2.08a1.84,1.84,0,0,0,2.55.5l15-10.07"/><path class="a" d="M30.25,35.44s1.48-2,3.5,0"/><path class="a" d="M27.67,40.56s3.87-4.9,8.78,0"/><line class="b" x1="37.85" y1="47.89" x2="41.12" y2="52.92"/><line class="b" x1="40.42" y1="46.37" x2="43.68" y2="51.39"/><line class="b" x1="27.12" y1="52.92" x2="24.94" y2="51.41"/></svg>