<svg xmlns="http://www.w3.org/2000/svg" width="64" height="64" viewBox="0 0 64 64"><defs><style>.a{fill:#db8b2d;}</style></defs><path class="a" d="M58.91,32.83A1.71,1.71,0,0,0,58,31.75a3.09,3.09,0,0,0-1.36-.28,8.93,8.93,0,0,0-3,.68c-2.36.86-4.73,1.81-7,2.73l-.11,0-2.41,1c-.35.13-.69.28-1.1.46l-.88.38-.1-.32c-.38-1.34-1.3-1.75-2.88-2-1-.18-2-.41-3-.62l-.2,0-1.64-.36a15.37,15.37,0,0,1-4.05-1.51l-.1,0a25.44,25.44,0,0,0-7.82-3.08,9.79,9.79,0,0,0-7.86,2.22,17.77,17.77,0,0,1-2.54,1.74c-.95.51-1.94,1-2.95,1.47-.77.37-1.54.74-2.3,1.13a2.91,2.91,0,0,0-1.58,1.8,3,3,0,0,0,.48,2.4q2.49,3.9,5,7.78a2.45,2.45,0,0,0,2.1,1.29A3.05,3.05,0,0,0,14,48.19l1.48-.73c1-.49,2.05-1,3.06-1.49a6.44,6.44,0,0,1,4.34-.53l3.18.7c3,.64,6,1.31,9,1.92a12.07,12.07,0,0,0,2.41.26h0a9.29,9.29,0,0,0,5.66-1.87l6-4.36.09-.06c2.54-1.83,5.15-3.71,7.71-5.59a6.61,6.61,0,0,0,1.74-1.92A2.11,2.11,0,0,0,58.91,32.83Zm-47,13.39c-1-1.57-2-3.14-3-4.7L8.53,41,7,38.62a1.49,1.49,0,0,1-.32-1.13,1.42,1.42,0,0,1,.83-.8c.61-.31,1.22-.59,1.84-.89.94-.43,1.91-.89,2.83-1.39a28.49,28.49,0,0,0,3.44-2.29,8.45,8.45,0,0,1,5.24-1.9,8.92,8.92,0,0,1,3.15.6c1.4.53,2.76,1.2,4.08,1.85.73.37,1.5.74,2.27,1.09a13.94,13.94,0,0,0,2.51.93c1.47.36,3,.67,4.41,1l1.87.4c1.16.25,1.41.63,1.16,1.8-.14.69-.35,1.37-1.2,1.37a3.53,3.53,0,0,1-.68-.09l-2-.44c-2.35-.5-4.78-1-7.16-1.56a1.38,1.38,0,0,0-1.3.25c-.23.16-.46.32-.7.46l-.64.39.73.16,11,2.38a4.68,4.68,0,0,0,.93.11,2.63,2.63,0,0,0,2.46-1.77,1.54,1.54,0,0,1,.75-.7c4-1.64,8-3.24,12-4.83A8.5,8.5,0,0,1,56,33.16l.13,0a1.87,1.87,0,0,1,.66-.06.66.66,0,0,1,.51.3.56.56,0,0,1,0,.51,4.54,4.54,0,0,1-1.36,1.29L49.14,40l-.37.27L42,45.21a8.22,8.22,0,0,1-6.72,1.24c-3-.61-6.11-1.29-8.83-1.88l-.16,0-3.53-.77a7.19,7.19,0,0,0-4.53.54c-1.54.7-3,1.46-4.73,2.31A1.07,1.07,0,0,1,11.89,46.22Z"/><path class="a" d="M34.5,24.09a22.93,22.93,0,0,0,6.86,6.56l.46.3.47-.3a23.05,23.05,0,0,0,6.86-6.56,7.63,7.63,0,0,0,1.27-3.41A4.52,4.52,0,0,0,49.16,17a4.87,4.87,0,0,0-3.58-1.56,5,5,0,0,0-3.72,1.7l0,0,0,0a5,5,0,0,0-3.73-1.7A4.86,4.86,0,0,0,34.49,17a4.49,4.49,0,0,0-1.26,3.65A7.63,7.63,0,0,0,34.5,24.09Zm3.56-6.94a3.32,3.32,0,0,1,2.47,1.13l.12.13,1.17,1.21L43,18.4l.11-.12a3.28,3.28,0,0,1,2.46-1.13,3.21,3.21,0,0,1,2.36,1,2.8,2.8,0,0,1,.81,2.33,6,6,0,0,1-1,2.66,20.86,20.86,0,0,1-5.93,5.77,20.94,20.94,0,0,1-5.92-5.77,6,6,0,0,1-1-2.66,2.8,2.8,0,0,1,.81-2.33A3.19,3.19,0,0,1,38.06,17.15Z"/></svg>