<svg width="250" height="40" viewBox="0 0 250 40" fill="none" xmlns="http://www.w3.org/2000/svg">
<path d="M50.1745 32.7751V12.1989H57.3756C62.0773 12.1989 64.4282 14.5497 64.4282 17.6368C64.4282 21.1631 61.1927 21.8993 61.1927 21.8993V22.0477C61.1927 22.0477 65.1582 22.7839 65.1582 27.0464C65.1582 30.2819 62.6589 32.7813 57.8087 32.7813H50.1745V32.7751ZM53.1131 14.989V20.8661H57.3756C60.1657 20.8661 61.3411 19.6907 61.3411 17.9275C61.3411 16.1644 60.1657 14.989 57.3756 14.989H53.1131ZM57.8148 23.5139H53.1131V29.9788H57.8148C60.7534 29.9788 62.0773 28.6549 62.0773 26.7433C62.0773 24.8378 60.7534 23.5139 57.8148 23.5139Z" fill="black"/>
<path d="M90.4423 12.1989C95.7318 12.1989 98.3796 14.8467 98.3796 18.8122C98.3796 23.8109 93.8202 24.3986 93.8202 24.3986V24.5471C93.8202 24.5471 95.0265 24.9863 95.7318 26.6072L96.7587 28.958C97.1423 29.8427 97.6434 30.2819 98.6704 30.2819C99.2581 30.2819 99.8458 30.1335 99.8458 30.1335V32.7813C99.8458 32.7813 98.9611 33.072 98.0826 33.072C95.8803 33.072 94.8471 32.0451 93.9686 30.1335L92.4963 26.8979C92.0818 26.0194 91.4693 25.4255 90.4362 25.4255H86.6129V32.7751H83.6743V12.1989H90.4423ZM90.4423 22.6293C93.8202 22.6293 95.2925 21.1569 95.2925 18.806C95.2925 16.4551 93.8202 14.9828 90.4423 14.9828H86.6191V22.6231H90.4423V22.6293Z" fill="black"/>
<path d="M119.841 28.2156L118.226 32.7751H114.99L122.779 12.1989H126.157L133.946 32.7751H130.71L129.095 28.2156H119.841ZM124.542 15.4282H124.394L120.867 25.4255H128.069L124.542 15.4282Z" fill="black"/>
<path d="M154.089 21.7508H162.317V24.5409H154.089V32.7689H151.15V12.1989H163.789V14.989H154.089V21.7508Z" fill="black"/>
<path d="M184.514 32.7751H181.575V12.1989H184.514V32.7751Z" fill="black"/>
<path d="M211.407 32.7751H208.468V14.989H202.294V12.1989H217.581V14.989H211.407V32.7751Z" fill="black"/>
<path d="M243.156 32.7751H240.217V14.989H234.043V12.1989H249.33V14.989H243.156V32.7751Z" fill="black"/>
<path d="M21.7353 34C19.1123 34 16.9779 32.3358 15.5241 30.1334C14.0703 32.3358 11.9421 34 9.31287 34C4.54929 34 0.670364 30.1891 0.670364 25.4998C0.670364 21.6456 3.3058 19.4865 5.62573 17.5811C5.71853 17.5068 5.81133 17.4264 5.90412 17.3522C5.12463 13.7331 5.03802 10.578 5.03183 10.2687C5.03183 7.74459 6.6032 6 8.86126 6C11.1193 6 12.6907 7.74459 12.6907 10.2377C12.6907 14.0548 10.7667 16.3562 8.66329 18.2183C9.54796 21.5714 11.076 24.9368 13.73 25.9947C13.5135 25.11 13.4021 24.2439 13.4021 23.4397C13.4021 22.3447 14.1445 21.1816 15.5241 21.1816C16.9037 21.1816 17.6461 22.3447 17.6461 23.4397C17.6461 24.2439 17.5347 25.11 17.3182 25.9947C19.9722 24.943 21.5064 21.5775 22.3849 18.2245C20.2815 16.3623 18.3575 14.061 18.3575 10.2439C18.3575 7.74459 19.9289 6.00619 22.1869 6.00619C24.445 6.00619 26.0164 7.75077 26.0164 10.2439C26.0102 10.5656 25.9236 13.7269 25.1441 17.3522C25.2369 17.4264 25.3297 17.5068 25.4225 17.5811C27.7424 19.4865 30.3778 21.6456 30.3778 25.4998C30.3778 30.1829 26.5051 34 21.7353 34ZM17.4048 28.5559C18.4936 30.2881 20.0526 31.5502 21.7353 31.5502C25.1503 31.5502 27.928 28.8343 27.928 25.4998C27.928 23.0561 26.3814 21.559 24.4636 19.9629C23.2696 23.8418 21.1476 27.6094 17.4048 28.5559ZM6.59082 19.9629C4.67302 21.5528 3.1264 23.0499 3.1264 25.4998C3.1264 28.8343 5.90412 31.5502 9.31906 31.5502C11.0018 31.5502 12.5608 30.2881 13.6496 28.5559C9.90059 27.6032 7.78481 23.8356 6.59082 19.9629ZM22.1869 8.44985C20.9435 8.44985 20.8074 9.69951 20.8074 10.2377C20.8074 12.502 21.7168 14.0672 22.9912 15.4096C23.4861 12.57 23.5603 10.2749 23.5665 10.213C23.5665 9.69951 23.4304 8.44985 22.1869 8.44985ZM8.86745 8.44985C7.62397 8.44985 7.48786 9.69951 7.48786 10.2377C7.48786 10.2872 7.56829 12.5762 8.0632 15.4096C9.33762 14.0672 10.247 12.502 10.247 10.2377C10.247 9.69951 10.1109 8.44985 8.86745 8.44985Z" fill="#DDA46F"/>
</svg>
