<svg width="296" height="93" viewBox="0 0 296 93" fill="none" xmlns="http://www.w3.org/2000/svg">
<g clip-path="url(#clip0_99:378)">
<path d="M154.211 40C151.588 40 149.454 38.3358 148 36.1334C146.546 38.3358 144.418 40 141.789 40C137.025 40 133.146 36.1891 133.146 31.4998C133.146 27.6456 135.782 25.4865 138.102 23.5811C138.194 23.5068 138.287 23.4264 138.38 23.3522C137.601 19.7331 137.514 16.578 137.508 16.2687C137.508 13.7446 139.079 12 141.337 12C143.595 12 145.167 13.7446 145.167 16.2377C145.167 20.0548 143.243 22.3562 141.139 24.2183C142.024 27.5714 143.552 30.9368 146.206 31.9947C145.989 31.11 145.878 30.2439 145.878 29.4397C145.878 28.3447 146.62 27.1816 148 27.1816C149.38 27.1816 150.122 28.3447 150.122 29.4397C150.122 30.2439 150.011 31.11 149.794 31.9947C152.448 30.943 153.982 27.5775 154.861 24.2245C152.757 22.3623 150.833 20.061 150.833 16.2439C150.833 13.7446 152.405 12.0062 154.663 12.0062C156.921 12.0062 158.492 13.7508 158.492 16.2439C158.486 16.5656 158.399 19.7269 157.62 23.3522C157.713 23.4264 157.806 23.5068 157.898 23.5811C160.218 25.4865 162.854 27.6456 162.854 31.4998C162.854 36.1829 158.981 40 154.211 40ZM149.881 34.5559C150.969 36.2881 152.528 37.5502 154.211 37.5502C157.626 37.5502 160.404 34.8343 160.404 31.4998C160.404 29.0561 158.857 27.559 156.939 25.9629C155.745 29.8418 153.623 33.6094 149.881 34.5559ZM139.067 25.9629C137.149 27.5528 135.602 29.0499 135.602 31.4998C135.602 34.8343 138.38 37.5502 141.795 37.5502C143.478 37.5502 145.037 36.2881 146.125 34.5559C142.376 33.6032 140.261 29.8356 139.067 25.9629ZM154.663 14.4498C153.419 14.4498 153.283 15.6995 153.283 16.2377C153.283 18.502 154.193 20.0672 155.467 21.4096C155.962 18.57 156.036 16.2749 156.042 16.213C156.042 15.6995 155.906 14.4498 154.663 14.4498ZM141.343 14.4498C140.1 14.4498 139.964 15.6995 139.964 16.2377C139.964 16.2872 140.044 18.5762 140.539 21.4096C141.813 20.0672 142.723 18.502 142.723 16.2377C142.723 15.6995 142.587 14.4498 141.343 14.4498Z" fill="#DDA46F"/>
<path d="M48.4224 80.5762V60H55.6234C60.3251 60 62.676 62.3509 62.676 65.4379C62.676 68.9642 59.4405 69.7004 59.4405 69.7004V69.8489C59.4405 69.8489 63.406 70.5851 63.406 74.8475C63.406 78.0831 60.9067 80.5824 56.0565 80.5824H48.4224V80.5762ZM51.3609 62.7901V68.6673H55.6234C58.4135 68.6673 59.589 67.4918 59.589 65.7287C59.589 63.9655 58.4135 62.7901 55.6234 62.7901H51.3609ZM56.0627 71.3151H51.3609V77.7799H56.0627C59.0012 77.7799 60.3251 76.456 60.3251 74.5444C60.3251 72.639 59.0012 71.3151 56.0627 71.3151Z" fill="black"/>
<path d="M88.6901 60C93.9796 60 96.6274 62.6478 96.6274 66.6133C96.6274 71.612 92.0679 72.1997 92.0679 72.1997V72.3482C92.0679 72.3482 93.2743 72.7874 93.9796 74.4083L95.0065 76.7592C95.3901 77.6438 95.8912 78.0831 96.9181 78.0831C97.5059 78.0831 98.0936 77.9346 98.0936 77.9346V80.5824C98.0936 80.5824 97.2089 80.8732 96.3304 80.8732C94.128 80.8732 93.0949 79.8462 92.2164 77.9346L90.744 74.6991C90.3295 73.8206 89.7171 73.2267 88.6839 73.2267H84.8607V80.5762H81.9221V60H88.6901ZM88.6901 70.4304C92.0679 70.4304 93.5403 68.958 93.5403 66.6072C93.5403 64.2563 92.0679 62.7839 88.6901 62.7839H84.8669V70.4242H88.6901V70.4304Z" fill="black"/>
<path d="M118.088 76.0168L116.474 80.5762H113.238L121.027 60H124.405L132.193 80.5762H128.958L127.343 76.0168H118.088ZM122.79 63.2293H122.641L119.115 73.2267H126.316L122.79 63.2293Z" fill="black"/>
<path d="M152.337 69.5519H160.565V72.342H152.337V80.57H149.398V60H162.037V62.7901H152.337V69.5519Z" fill="black"/>
<path d="M182.762 80.5762H179.823V60H182.762V80.5762Z" fill="black"/>
<path d="M209.654 80.5762H206.716V62.7901H200.542V60H215.829V62.7901H209.654V80.5762Z" fill="black"/>
<path d="M241.403 80.5762H238.465V62.7901H232.291V60H247.578V62.7901H241.403V80.5762Z" fill="black"/>
</g>
<defs>
<clipPath id="clip0_99:378">
<rect width="296" height="92.8732" fill="white" transform="matrix(1 0 0 -1 0 92.8732)"/>
</clipPath>
</defs>
</svg>
