<svg width="43" height="34" viewBox="0 0 43 34" fill="none" xmlns="http://www.w3.org/2000/svg">
<path d="M0.705313 9.19999C0.705313 14.24 4.30531 17.84 9.34531 17.84C8.62531 22.16 5.02531 25.76 0.705313 26.48V33.68C10.0653 32.24 17.9853 24.32 17.9853 10.64C17.9853 4.16 14.3853 0.559993 9.34531 0.559993C4.30531 0.559993 0.705313 4.16 0.705313 9.19999ZM25.1853 9.19999C25.1853 14.24 28.7853 17.84 33.8253 17.84C33.1053 22.16 29.5053 25.76 25.1853 26.48V33.68C34.5453 32.24 42.4653 24.32 42.4653 10.64C42.4653 4.16 38.8653 0.559993 33.8253 0.559993C28.7853 0.559993 25.1853 4.16 25.1853 9.19999Z" fill="#DB8B2D"/>
</svg>
