<svg xmlns="http://www.w3.org/2000/svg" viewBox="0 0 180 180"><defs><style>.a{fill:none;stroke:#db8b2d;stroke-linecap:round;stroke-linejoin:round;stroke-width:2px;}</style></defs><path class="a" d="M65.69,58c3.8,3.7,1.18-15.1,20.42-18.59,8-.48,13.42-3.57,15.89-9.52a4.93,4.93,0,0,0-1.56-5.83c-11-8.14-40.09-4.25-35.9,31.5A4.1,4.1,0,0,0,65.69,58Z"/><path class="a" d="M99.63,33.79c7.26,6.14,9.59,13.88,10.34,22.59a1.57,1.57,0,0,0,1.7,1.42h0a1.61,1.61,0,0,0,1.48-1.45c1.54-16.2,0-28.19-10.77-30.2C102.75,28.87,101.7,31.4,99.63,33.79Z"/><path class="a" d="M66.65,58.47s-2.78-2.16-1.88,3,3.36,14.41,5.39,10c4,10,11.35,16.72,19.75,16.73"/><path class="a" d="M100.92,82.89c-3,3.29-6.67,5.27-11,5.27"/><path class="a" d="M112.87,57.31s1.5-1.72.6,3.44c-.23,1.29-.55,2.83-.94,4.35"/><path class="a" d="M115.83,103.22s-14.41-.86-14.91-18.22,10.81-20.4,14.83-20.35c5.65.06,16.82.88,16.83,19,0,13.42-5.79,8.62-5.92,21.31v18.49s1.43,17.1-34.87,20.92c0,0-1.45-18.94,10-27.89,0,0-28.28-10.12-26-35.6C75.43,90.34,105.07,114.5,115.83,103.22Z"/><path class="a" d="M70.16,71.43s.58,19.71-5.07,25.35"/><path class="a" d="M76.4,90.62c-1.11,2.68-3,4.36-7.16,5.35l-19.42,3.8c-6.7,1.28-8.78,6.14-8.53,14.12a107.42,107.42,0,0,0,5.74,31c2.24,6.16,6.12,12.65,11.9,13,0,0,65.53,8,67.73-34.51"/><path class="a" d="M127.19,99.7c6.85.67,10.43,5.13,11.41,12.6,1.14,17.7-5.31,36.66-14.76,41.44-14.79,7.57-37.12,6-59.25,4.64"/><path class="a" d="M62,122.76s-2,27.56,29.81,21.6"/></svg>