<svg xmlns="http://www.w3.org/2000/svg" viewBox="0 0 180 180"><defs><style>.a,.b{fill:none;stroke:#db8b2d;stroke-miterlimit:10;stroke-width:2px;}.b{stroke-dasharray:9.46 9.46;}</style></defs><path class="a" d="M46.62,145l2.72-21.15c.77-4.28,1.72-7.69.86-19.44-.51-8.49-1.1-15.11-1.79-19.73a40.5,40.5,0,0,1,.79-12.86c1.53-6,4.88-9.31,9.72-10.57,3.57-.17,7.83.4,11.29,0s6.76-3.64,8.3-5.72,4.56-12.58,4.56-12.58"/><path class="a" d="M133.38,145l-2.72-21.15c-.77-4.28-1.72-7.69-.86-19.44.51-8.49,1.1-15.11,1.79-19.73a40.5,40.5,0,0,0-.79-12.86c-1.53-6-4.88-9.31-9.72-10.57-3.57-.17-7.83.4-11.29,0s-6.76-3.64-8.3-5.72-.71-10.1-.71-10.1"/><path class="a" d="M60.4,80.22a99.29,99.29,0,0,0,4.45,27.18,23.17,23.17,0,0,1,0,18.44c-4.13,7.75-5.36,18.66-5.56,30.68"/><path class="a" d="M119.1,80.22a99.65,99.65,0,0,1-4.44,27.18,23.09,23.09,0,0,0,0,18.44c4.13,7.75,5.35,18.66,5.55,30.68"/><path class="a" d="M78.51,23.48s-5.29,21,3.21,23.88"/><path class="a" d="M111.57,29.07s-4.52,22.4-11,21"/><path class="a" d="M92.07,44.08s-.53,1.52-1.26,4.32"/><path class="b" d="M88.79,57.64a147,147,0,0,0-1.55,39.48s2.56,12.46,2.93,50.15"/><path class="a" d="M90.2,152c0,1.47,0,3,0,4.51"/><path class="a" d="M96.22,75.57s-3.4,21,12.1,20.63"/><path class="a" d="M76.54,77.79s4,18.94-7.34,20.83"/></svg>