<svg xmlns="http://www.w3.org/2000/svg" viewBox="0 0 180 180"><defs><style>.a{fill:none;stroke:#db8b2d;stroke-miterlimit:10;stroke-width:2px;}.b{fill:#db8b2d;}</style></defs><path class="a" d="M92.35,66S74.06,29.93,98.79,17.58c9.45-4.71,16.12-.12,20.29,5.23A29.42,29.42,0,0,1,125,37.48c1.22,10.36,5.3,34.08,16.66,29.47,10.28-4.17,8.29-32-17.6-40.2a26.81,26.81,0,0,0-23.55,3.32c-6,4.22-11.33,11.78-10.46,25.29"/><path class="a" d="M103.37,50.14a7.71,7.71,0,0,0-4.91-1.76H81.54a7.71,7.71,0,0,0-4.91,1.76L56.32,66.85a7.69,7.69,0,0,0-2.82,6v65.93A8.27,8.27,0,0,0,61.77,147h56.46a8.27,8.27,0,0,0,8.27-8.27V72.82a7.69,7.69,0,0,0-2.82-6Z"/><circle class="a" cx="90" cy="61.15" r="5.8"/><path class="b" d="M69.68,126H66.47L75.9,111.9,67.42,99.3h3.21l6.87,10.34h.19L84.56,99.3h3.21L79.3,111.9,88.73,126H85.48l-7.79-11.87H77.5Z"/><path class="b" d="M108.5,118.73C108.5,112.39,94,114.65,94,106c0-3.93,3.32-7.29,8.51-7.29s8.32,3.13,8.32,6.94a7.67,7.67,0,0,1-.38,2.41h-2.67a6.65,6.65,0,0,0,.38-2.25c0-2.56-2.06-4.62-5.65-4.62s-5.76,2.29-5.76,4.81c0,6.22,14.47,4,14.47,12.71,0,4.43-3.44,7.86-8.94,7.86a11.71,11.71,0,0,1-9.58-4.88l1.53-1.87a9.75,9.75,0,0,0,7.9,4.27C106.13,124.11,108.5,121.75,108.5,118.73Z"/><path class="b" d="M69.11,87.17c1.83,0,2.67.85,2.67,2.2s-.84,2.18-2.67,2.18h-.94v2H66.88V87.17Zm-.94,1.14v2.1h1c.89,0,1.31-.41,1.31-1s-.42-1.06-1.31-1.06Z"/><path class="b" d="M79.57,93.58H78.2l-.41-1.24H75.22l-.41,1.24H73.44l2.38-6.41h1.37ZM76.78,89.5a3.3,3.3,0,0,1-.23-1h-.09a3.3,3.3,0,0,1-.23,1l-.6,1.7h1.74Z"/><path class="b" d="M84.16,93.71a3.37,3.37,0,0,1-2.52-1.12l.68-.87a2.41,2.41,0,0,0,1.74.85c.76,0,1.13-.38,1.13-.84s-.37-.83-1.13-.83h-.78V89.79h.83a.86.86,0,0,0,.94-.82.85.85,0,0,0-.94-.81c-.62,0-.94.32-.94.77a1,1,0,0,0,.07.34H82a1.81,1.81,0,0,1-.09-.55c0-.89.8-1.69,2.25-1.69a2,2,0,0,1,2.28,1.81,1.39,1.39,0,0,1-1.1,1.38v.06a1.57,1.57,0,0,1,1.23,1.59C86.53,92.84,85.66,93.71,84.16,93.71Z"/><path class="b" d="M92.63,92.32,91.39,90.1c-.45-.81-.55-1-.55-1h-.09a3.61,3.61,0,0,1,.09,1v3.48H89.56V87.17h1.6l1.47,2.65a3,3,0,0,1,.41.92h.09a3,3,0,0,1,.41-.92L95,87.17h1.6v6.41H95.33V90.1a3.61,3.61,0,0,1,.09-1h-.09s-.1.24-.55,1l-1.24,2.22Z"/><path class="b" d="M101.2,89.79h2.45v1.14H101.2v1.5h3v1.15H99.91V87.17h4.26v1.14h-3Z"/><path class="b" d="M109.28,87.17c1.84,0,2.68.85,2.68,2.2s-.84,2.18-2.68,2.18h-.94v2h-1.28V87.17Zm-.94,1.14v2.1h1c.9,0,1.31-.41,1.31-1s-.41-1.06-1.31-1.06Z"/><line class="a" x1="122.22" y1="109.48" x2="122.22" y2="116.53"/><path class="a" d="M122.22,121.57v15.61a5.35,5.35,0,0,1-5.33,5.34h-6.55"/></svg>