<svg xmlns="http://www.w3.org/2000/svg" width="180" height="180" viewBox="0 0 180 180"><defs><style>.a{fill:none;stroke:#db8b2d;stroke-linecap:round;stroke-linejoin:round;stroke-width:1.5px;}</style></defs><path class="a" d="M32.92,145.53c0-30.56-.74-64.16,3.4-75.42,2.37-6.83,4.82-12,13.54-14.31a110.9,110.9,0,0,1,14.66-.47c.9,0,13.08,1.53,13.08-22.94"/><path class="a" d="M54,113.09c-1,8.35-1.35,18.2-1.26,32.44"/><path class="a" d="M51.38,106.88a25.13,25.13,0,0,0,5.42,10,135.62,135.62,0,0,1,5.85,30"/><path class="a" d="M56.81,55.53c.06,10.65-.37,19.82-1.59,26.74a27.53,27.53,0,0,0-4.94,14.39"/><path class="a" d="M61.7,55.53V83.92a30.87,30.87,0,0,1,22.09,16.57"/><path class="a" d="M56.8,116.92s11.82,4.73,33,4.52"/><path class="a" d="M147.08,145.53c0-30.56.74-64.16-3.4-75.42-2.37-6.83-4.82-12-13.54-14.31a110.9,110.9,0,0,0-14.66-.47c-.9,0-13.08,1.53-13.08-22.94"/><path class="a" d="M126,113.09c1.05,8.35,1.35,18.2,1.26,32.44"/><path class="a" d="M128.59,107a25.16,25.16,0,0,1-5.39,9.92,135.62,135.62,0,0,0-5.85,30"/><path class="a" d="M123.19,55.53c-.06,10.65.37,19.82,1.59,26.74a27.63,27.63,0,0,1,5,14.68"/><path class="a" d="M118.3,55.53V83.92a30.87,30.87,0,0,0-22.09,16.57"/><path class="a" d="M101.05,121.1c-3.28.24-6.9.38-10.84.34"/><path class="a" d="M123.2,116.92a63.26,63.26,0,0,1-11.39,2.88"/><path class="a" d="M138.35,101.12c0,5.38-21.55,9.73-48.14,9.73-15.94,0-30.07-1.56-38.83-4-5.86-1.62-9.31-3.61-9.31-5.76"/><path class="a" d="M126.47,85c7.4,1.71,11.88,4,11.88,6.4,0,5.38-21.55,9.73-48.14,9.73-16.62,0-31.27-1.7-39.92-4.29-5.19-1.55-8.22-3.42-8.22-5.44,0-2.4,4.29-4.59,11.4-6.29"/><line class="a" x1="42.07" y1="91.39" x2="42.07" y2="101.12"/><line class="a" x1="138.35" y1="91.39" x2="138.35" y2="101.12"/><line class="a" x1="87.21" y1="101.12" x2="87.21" y2="107"/><line class="a" x1="100.41" y1="101.12" x2="100.41" y2="107"/><line class="a" x1="113.61" y1="100.11" x2="113.61" y2="105.99"/><line class="a" x1="126.81" y1="98.18" x2="126.81" y2="104.06"/><line class="a" x1="74.01" y1="101.12" x2="74.01" y2="107"/><line class="a" x1="60.65" y1="100.11" x2="60.65" y2="105.99"/><line class="a" x1="47.61" y1="96.07" x2="47.61" y2="101.94"/><line class="a" x1="53.89" y1="98.55" x2="53.89" y2="102.66"/><line class="a" x1="67.41" y1="100.99" x2="67.41" y2="105.11"/><line class="a" x1="80.55" y1="101.87" x2="80.55" y2="105.99"/><line class="a" x1="120.09" y1="99.01" x2="120.09" y2="103.12"/><line class="a" x1="106.96" y1="101.06" x2="106.96" y2="105.18"/><line class="a" x1="93.82" y1="101.94" x2="93.82" y2="106.06"/><line class="a" x1="108.23" y1="134.7" x2="102.35" y2="133.8"/><line class="a" x1="107.22" y1="146.99" x2="101.34" y2="147.93"/><line class="a" x1="111.19" y1="122.47" x2="105.26" y2="122.47"/><line class="a" x1="110.28" y1="115.87" x2="106.17" y2="116.35"/><line class="a" x1="109.31" y1="128.78" x2="106.09" y2="128.42"/><line class="a" x1="106.39" y1="140.41" x2="102.28" y2="140.41"/><line class="a" x1="133.39" y1="96.95" x2="133.39" y2="101.06"/><path class="a" d="M101.16,153.61c-5.83-3.57-5.64-8.83-1.76-20.45s.61-18.59-2.64-22.31l11.28-.69c3.26,3.72,5.66,9.25,1.78,20.87s-3.58,17,2.25,20.52Z"/></svg>