<svg xmlns="http://www.w3.org/2000/svg" width="64" height="64" viewBox="0 0 64 64"><defs><style>.a,.b{fill:none;stroke:#db8b2d;stroke-width:1.5px;}.a{stroke-miterlimit:10;}.b{stroke-linecap:round;stroke-linejoin:round;}</style></defs><path class="a" d="M41.34,21.14a1.38,1.38,0,0,0,.16-.64V18.62a1.36,1.36,0,0,0-1.36-1.36H35.79a1.36,1.36,0,0,0-1.36,1.36V20.5a1.39,1.39,0,0,0,.17.64,8.81,8.81,0,0,1,6.74,0Z"/><path class="a" d="M29.06,48.17a2.63,2.63,0,0,0,2.63,2.63H44.24a2.63,2.63,0,0,0,2.63-2.63V29.38a8.9,8.9,0,0,0-5.53-8.24,8.81,8.81,0,0,0-6.74,0A8.7,8.7,0,0,0,33,22"/><path class="a" d="M29.06,15a6.73,6.73,0,0,1,5.37-2.75h8.18"/><rect class="a" x="36.67" y="12.28" width="2.6" height="4.98"/><line class="a" x1="34.43" y1="29.65" x2="46.87" y2="29.65"/><path class="b" d="M29.34,19.2c0,2.18,3.69,3.28,3.69,8a3.69,3.69,0,1,1-7.37,0C25.66,22.48,29.34,21.38,29.34,19.2Z"/><path class="a" d="M13,44.29c-.62-1-1.26-2-1.89-3L10.93,41l-1-1.48a.92.92,0,0,1-.19-.71,1,1,0,0,1,.52-.5l1.15-.55c.59-.28,1.2-.56,1.77-.88a17,17,0,0,0,2.17-1.44,5.31,5.31,0,0,1,3.29-1.19,5.69,5.69,0,0,1,2,.38c.87.33,1.73.75,2.56,1.16l1.42.69a9.12,9.12,0,0,0,1.58.58c.92.22,1.86.42,2.77.61.39.08.78.12,1.17.2.73.16,1.08.5,1.07,1.2-.09.44-.14,1.9-.67,1.9a5.79,5.79,0,0,1-.76-.07l-7.52-1.61.46.1,6.9,1.49a2.6,2.6,0,0,0,.58.07c.69,0,.69,0,.9-1.12.1-.18.94-.35,1.12-.43,2.53-1,5-2,7.54-3a5,5,0,0,1,.93-.27l.09,0a1.12,1.12,0,0,1,.41,0,.4.4,0,0,1,.32.19.35.35,0,0,1,0,.32,2.85,2.85,0,0,1-.85.81l-4.24,3.06-.23.17q-2.14,1.53-4.27,3.08a5.18,5.18,0,0,1-4.22.77c-1.91-.38-3.84-.81-5.54-1.18l-.1,0-2.22-.49a4.51,4.51,0,0,0-2.85.34c-1,.44-1.92.92-3,1.45A.67.67,0,0,1,13,44.29Z"/></svg>