<svg xmlns="http://www.w3.org/2000/svg" width="64" height="64" viewBox="0 0 64 64"><defs><style>.a{fill:none;stroke:#db8b2d;stroke-miterlimit:10;stroke-width:1.5px;}.b{fill:#db8b2d;}</style></defs><path class="a" d="M36.89,22.79S36.7,29.85,41,34.51c7.58,8.18.53,15.93.53,15.93H26.76s-7-7.75.53-15.93a16.48,16.48,0,0,0,3.81-8.37,18.57,18.57,0,0,0,.3-3.35Z"/><line class="a" x1="37.17" y1="26" x2="31.1" y2="26"/><polygon class="a" points="39.06 38.18 35.8 38.18 35.8 34.91 32.5 34.91 32.5 38.18 29.23 38.18 29.23 41.47 32.5 41.47 32.5 44.74 35.8 44.74 35.8 41.47 39.06 41.47 39.06 38.18"/><rect class="a" x="24.34" y="15.38" width="2.48" height="3.67"/><path class="a" d="M26.83,15.38H37.17a3.07,3.07,0,0,1,3.16,3.31c0,3.41-3.44,2.22-3.44,4.1"/><path class="a" d="M26.83,19.06s4.57-.12,4.57,3.73"/><path class="a" d="M28.57,19.3a8.53,8.53,0,0,1-3,6"/><rect class="b" x="19.94" y="16.03" width="1.98" height="1.98"/><rect class="b" x="17" y="17.6" width="1.98" height="1.98"/><rect class="b" x="16.99" y="14.57" width="1.98" height="1.98"/><rect class="b" x="14.03" y="13" width="1.98" height="1.98"/><rect class="b" x="14.03" y="19.07" width="1.98" height="1.98"/><rect class="b" x="14.03" y="16.03" width="1.98" height="1.98"/><rect class="b" x="11.03" y="14.57" width="1.98" height="1.98"/><rect class="b" x="11.03" y="11.53" width="1.98" height="1.98"/><rect class="b" x="11.03" y="20.64" width="1.98" height="1.98"/><rect class="b" x="11.03" y="17.6" width="1.98" height="1.98"/></svg>