<svg xmlns="http://www.w3.org/2000/svg" width="64" height="64" viewBox="0 0 64 64"><defs><style>.a{fill:none;stroke:#db8b2d;stroke-linecap:round;stroke-linejoin:round;stroke-width:1.5px;}</style></defs><path class="a" d="M33.7,31.33s1.34-5.8,5.42-3.64c2.58,1.37,1.7,4.43.7,6.5a8.5,8.5,0,0,1-3.28,3.69c-1.35.79-2.84,1.06-2.84-1.64"/><path class="a" d="M36.54,37.88S39,44,32,47.5c0,0,9.27,9.92,17.34-6.22,4-8.07,1.9-15.11-1.24-20.13-3.3-5.28-9.33-9.15-15.55-9.31-7.74-.19-16.84.71-12,7.59,5.21,7.48,10.76,7.78,10.76,7.78"/><path class="a" d="M19.72,18.11a7.57,7.57,0,0,0-3.51,6.11c0,4,2.2,3.58,0,8.31"/><path class="a" d="M24.35,33.33a28.57,28.57,0,0,0,4.67,7A17.24,17.24,0,0,1,23.6,48a3.28,3.28,0,0,1-3.88.23c-3.2-2.67-5.7-5.56-6-9.11A8.78,8.78,0,0,1,15,32.82,39.15,39.15,0,0,0,24.35,33.33Z"/><line class="a" x1="34.55" y1="29.22" x2="24.35" y2="33.33"/><line class="a" x1="29.02" y1="40.37" x2="34.05" y2="37.92"/><path class="a" d="M23.6,48s4.25,0,5.42-.73v3.75"/></svg>