<svg xmlns="http://www.w3.org/2000/svg" width="128" height="128" viewBox="0 0 128 128"><defs><style>.a{fill:none;stroke:#db8b2d;stroke-linecap:round;stroke-linejoin:round;stroke-width:1.5px;}.b{fill:#db8b2d;}</style></defs><path class="a" d="M33.42,94.8s.26-5.38-1-27.49c-1.21-21,2-27.27,12.7-26.51,7.63.54,10.73-5.26,10.73-9.94"/><path class="a" d="M58.73,43.8s.69-3-13.62-3"/><path class="a" d="M45,87.39a37.92,37.92,0,0,1-1,7.41"/><path class="a" d="M41.59,69.25a17.46,17.46,0,0,0,1.35,3.29A36.75,36.75,0,0,1,44.68,80"/><path class="a" d="M46.76,40.81V52.9A18.23,18.23,0,0,0,41.1,63.62"/><path class="a" d="M42.94,72.54s8.2,9.2,18.65,1.26H64.5"/><path class="a" d="M64.5,69.7H61.86a22.73,22.73,0,0,0-15.1-16.8"/><path class="a" d="M94.58,94.8s-.26-5.38,1-27.49c1.21-21-2-27.27-12.7-26.51-7.63.54-10.73-5.26-10.73-9.94"/><path class="a" d="M69.27,43.8s-.69-3,13.62-3"/><path class="a" d="M85.06,72.54s-8.2,9.2-18.65,1.26H64.5"/><path class="a" d="M64.5,69.7h1.64a22.73,22.73,0,0,1,15.1-16.8"/><path class="a" d="M83,87.39a37.14,37.14,0,0,0,1,7.41"/><path class="a" d="M86.45,69.25a18.08,18.08,0,0,1-1.34,3.29A36.29,36.29,0,0,0,83.36,80"/><path class="a" d="M81.29,40.81V52.9a18.18,18.18,0,0,1,5.65,10.72"/><path class="a" d="M89.16,60.27c1.38.82,2.15,1.73,2.15,2.68,0,3.81-12.23,6.89-27.31,6.89S36.69,66.76,36.69,63c0-1,.76-1.85,2.15-2.67"/><path class="a" d="M87.88,74.79c2.19,1,3.43,2.13,3.43,3.34C91.31,81.93,79.08,85,64,85s-27.31-3.08-27.31-6.88c0-1.35,1.54-2.61,4.2-3.67"/><polygon class="b" points="54.99 69.25 54.51 73.76 50.84 71.08 47.17 68.41 51.33 66.57 55.48 64.73 54.99 69.25"/><polygon class="b" points="54.99 84.5 54.51 89.02 50.84 86.34 47.17 83.66 51.33 81.83 55.48 79.99 54.99 84.5"/></svg>