<svg xmlns="http://www.w3.org/2000/svg" width="128" height="128" viewBox="0 0 128 128"><defs><style>.a{fill:none;stroke:#db8b2d;stroke-linecap:round;stroke-linejoin:round;stroke-width:1.5px;}</style></defs><path class="a" d="M33.42,94.8s.26-5.38-1-27.49c-1.21-21,2-27.27,12.7-26.51,7.63.54,10.73-5.26,10.73-9.94"/><path class="a" d="M58.73,43.8s.69-3-13.62-3"/><path class="a" d="M46.76,40.81V52.9S37,61.3,42.94,72.54A40.92,40.92,0,0,1,44,94.8"/><path class="a" d="M42.94,72.54s8.2,9.2,18.65,1.26H64.5"/><path class="a" d="M64.5,69.7H61.86a22.73,22.73,0,0,0-15.1-16.8"/><path class="a" d="M94.58,94.8s-.26-5.38,1-27.49c1.21-21-2-27.27-12.7-26.51-7.63.54-10.73-5.26-10.73-9.94"/><path class="a" d="M69.27,43.8s-.69-3,13.62-3"/><path class="a" d="M81.24,40.81V52.9S91,61.3,85.06,72.54A40.92,40.92,0,0,0,84,94.8"/><path class="a" d="M85.06,72.54s-8.2,9.2-18.65,1.26H64.5"/><path class="a" d="M64.5,69.7h1.64a22.73,22.73,0,0,1,15.1-16.8"/></svg>