<svg xmlns="http://www.w3.org/2000/svg" width="128" height="128" viewBox="0 0 128 128"><defs><style>.a,.b,.c,.d{fill:none;stroke:#db8b2d;stroke-width:1.5px;}.a{stroke-miterlimit:10;}.b,.c,.d{stroke-linecap:round;stroke-linejoin:round;}.c{stroke-dasharray:1.71 3.41;}.d{stroke-dasharray:1.79 3.58;}</style></defs><line class="a" x1="45.72" y1="62.83" x2="63.14" y2="62.83"/><path class="a" d="M38.37,62.83H37.6a2,2,0,0,1-1-3.72L40.14,57c2.45.46,4-.36,4.53-2.72L63.14,43.19V38.81"/><path class="a" d="M58.25,34a4.9,4.9,0,1,1,4.89,4.9"/><path class="a" d="M42.4,57.23V71c-4.27,2.24-4.11,7.37-4.11,7.37s-1.4,13.72,9.35,13.72,13.28-5.51,13.28-5.51S54.91,71,42.4,71"/><line class="a" x1="63.14" y1="86.52" x2="60.92" y2="86.52"/><polyline class="a" points="38.23 80.06 35.46 80.06 35.46 89.74 41.41 89.74"/><line class="a" x1="80.57" y1="62.83" x2="63.14" y2="62.83"/><path class="a" d="M87.92,62.83h.77a2,2,0,0,0,1-3.72L86.15,57c-2.45.46-4-.36-4.53-2.72L63.14,43.19"/><path class="a" d="M83.89,57.23V71C88.16,73.27,88,78.4,88,78.4s1.4,13.72-9.35,13.72-13.28-5.51-13.28-5.51S71.38,71,83.89,71"/><line class="a" x1="63.14" y1="86.52" x2="65.37" y2="86.52"/><polyline class="a" points="88.06 80.06 90.83 80.06 90.83 89.74 84.88 89.74"/><path class="b" d="M46.34,89.27a3.79,3.79,0,0,1-.62-.78"/><path class="c" d="M44.32,85.39A35.28,35.28,0,0,1,42.86,77"/><path class="b" d="M42.76,75.29c0-.33,0-.66,0-1,0,0,.31.17.85.53"/><path class="d" d="M46.45,76.94a43.33,43.33,0,0,1,6.3,6.31"/><path class="b" d="M53.85,84.67l.58.81"/><path class="b" d="M79.54,89.24a3.86,3.86,0,0,0,.62-.77"/><path class="c" d="M81.56,85.37A35.28,35.28,0,0,0,83,77"/><path class="b" d="M83.12,75.26c0-.32,0-.66,0-1,0,0-.31.18-.84.53"/><path class="d" d="M79.43,76.91a43,43,0,0,0-6.3,6.32"/><path class="b" d="M72,84.64l-.59.82"/></svg>