<svg xmlns="http://www.w3.org/2000/svg" width="128" height="128" viewBox="0 0 128 128"><defs><style>.a{fill:none;stroke:#db8b2d;stroke-linecap:round;stroke-linejoin:round;stroke-width:1.5px;}</style></defs><path class="a" d="M34,53.67c5.22-8.67,17.12-7.91,17.12-7.91,9.73,0,10.36,4.5,21.07,4.5a24.73,24.73,0,0,0,13.63-3.78V33.14a24.82,24.82,0,0,1-13.63,3.78c-10.71,0-11.34-4.5-21.07-4.5C40.46,32.42,31.84,39,31.84,47A11.8,11.8,0,0,0,34,53.67c3.2,4.69,9.66,7.9,17.12,7.9,10.6,0,15.75-6,25.82-6,10.63,0,19.25,5.76,19.25,12.86S87.54,81.3,76.91,81.3c-9.9,0-10-2.72-19.29-2.72-5.25,0-9.57,1.39-12.6,3.65h0V95.58h0c3-2.26,7.35-3.65,12.6-3.65,9.31,0,9.39,2.72,19.29,2.72,10.63,0,19.25-5.76,19.25-12.86V68.44"/><line class="a" x1="96.16" y1="68.44" x2="96.16" y2="81.78"/><line class="a" x1="48.71" y1="80.18" x2="48.71" y2="93.52"/><line class="a" x1="53.65" y1="92.21" x2="53.65" y2="86.88"/><line class="a" x1="59.27" y1="91.96" x2="59.27" y2="83.94"/><line class="a" x1="64.9" y1="92.71" x2="64.9" y2="87.79"/><line class="a" x1="70.52" y1="94.13" x2="70.52" y2="85.87"/><line class="a" x1="76.15" y1="94.63" x2="76.15" y2="88.93"/><line class="a" x1="81.77" y1="94.23" x2="81.77" y2="85.87"/><line class="a" x1="92.42" y1="89.39" x2="92.42" y2="81.78"/><line class="a" x1="87.4" y1="92.57" x2="87.4" y2="87.39"/><line class="a" x1="53.65" y1="74.38" x2="53.65" y2="69.05"/><line class="a" x1="59.27" y1="73.42" x2="59.27" y2="65.4"/><line class="a" x1="64.9" y1="71.72" x2="64.9" y2="66.8"/><line class="a" x1="70.52" y1="69.53" x2="70.52" y2="61.28"/><line class="a" x1="36.46" y1="69.41" x2="36.46" y2="61.4"/><line class="a" x1="42.09" y1="73.25" x2="42.09" y2="68.34"/><line class="a" x1="47.71" y1="74.43" x2="47.71" y2="66.17"/><line class="a" x1="76.15" y1="68.94" x2="76.15" y2="63.24"/><line class="a" x1="81.77" y1="69.05" x2="81.77" y2="60.69"/><line class="a" x1="92.42" y1="73.71" x2="92.42" y2="66.8"/><line class="a" x1="87.4" y1="71.03" x2="87.4" y2="65.85"/><line class="a" x1="48.02" y1="45.69" x2="48.02" y2="40.36"/><line class="a" x1="53.65" y1="45.81" x2="53.65" y2="37.8"/><line class="a" x1="59.27" y1="47" x2="59.27" y2="42.08"/><line class="a" x1="64.9" y1="49.03" x2="64.9" y2="40.77"/><line class="a" x1="36.46" y1="50.19" x2="36.46" y2="45.27"/><line class="a" x1="42.09" y1="46.91" x2="42.09" y2="38.65"/><line class="a" x1="70.52" y1="49.85" x2="70.52" y2="44.15"/><line class="a" x1="76.15" y1="49.87" x2="76.15" y2="41.51"/><line class="a" x1="81.77" y1="48.54" x2="81.77" y2="35.2"/><path class="a" d="M93.37,75.11C90,71.4,83.89,68.92,76.91,68.92c-10.07,0-15.22,6-25.82,6S31.84,68.39,31.84,60.34V47"/></svg>