<svg xmlns="http://www.w3.org/2000/svg" width="128" height="128" viewBox="0 0 128 128"><defs><style>.a{fill:none;stroke:#db8b2d;stroke-linecap:round;stroke-linejoin:round;stroke-width:1.5px;}</style></defs><path class="a" d="M26.48,62.83a87.36,87.36,0,0,0,9.62-14.7c4.61-8.84,11.68-8.35,11.68-8.35A7.83,7.83,0,0,0,55.73,32"/><polyline class="a" points="27.46 85.72 39.96 65.9 42.87 61.28"/><path class="a" d="M42.87,94.7a26.24,26.24,0,0,0,.66-18.77C40,65.9,41,69.08,40.45,65.12"/><path class="a" d="M83,75.59S79.74,88.8,83,94.7"/><path class="a" d="M71.05,32S70.6,39.5,80.93,40s5.54,15.87,5.54,15.87"/><path class="a" d="M75.82,38.9s-6.17.71-6.17,2.27"/><path class="a" d="M51.5,38.9s8.72.81,9.27,2.91"/><path class="a" d="M49.2,40s1.44,4.92,3,8.85A9.55,9.55,0,0,0,54,52c2.45,2.91,21.33,6.84,15.45,20.22-4.09,9.32-19.82,6.65-22.35-1.68-2.81-9.29,2.29-14,3.42-15.18,1.82-1.95,3.14-2.06,1.71-6.44"/><path class="a" d="M69.65,71.58A14,14,0,0,0,81.23,75.9s8.9-.09,8.46-10.78c-.37-8.75-8.76-9.77-8.76-16.1V40"/><path class="a" d="M80.93,49c-2.32,6.44-8.47,9.22-10.4,17.77"/><line class="a" x1="51.5" y1="75.99" x2="43.53" y2="75.93"/><line class="a" x1="46.22" y1="67.68" x2="41.1" y2="69.08"/></svg>